<svg width="50" height="51" viewBox="0 0 50 51" fill="none" xmlns="http://www.w3.org/2000/svg">
<rect x="0.00341797" y="0.166504" width="49.9989" height="50" rx="24.9995" fill="url(#paint0_linear_1196_1395)"/>
<rect x="0.803418" y="0.966504" width="48.3989" height="48.4" rx="24.1995" stroke="white" stroke-opacity="0.2" stroke-width="1.6"/>
<path d="M21.0039 25.1666C21.0039 22.9576 22.7942 21.1664 25.0033 21.1664C27.2123 21.1664 29.0036 22.9576 29.0036 25.1666C29.0036 27.3756 27.2123 29.1668 25.0033 29.1668C22.7942 29.1668 21.0039 27.3756 21.0039 25.1666ZM18.8414 25.1666C18.8414 28.5697 21.6 31.3282 25.0033 31.3282C28.4065 31.3282 31.1652 28.5697 31.1652 25.1666C31.1652 21.7635 28.4065 19.0049 25.0033 19.0049C21.6 19.0049 18.8414 21.7635 18.8414 25.1666ZM29.9691 18.7606C29.969 19.0454 30.0533 19.3239 30.2114 19.5607C30.3696 19.7976 30.5944 19.9822 30.8575 20.0913C31.1206 20.2004 31.4101 20.2291 31.6895 20.1736C31.9688 20.1182 32.2255 19.9811 32.4269 19.7798C32.6284 19.5785 32.7656 19.322 32.8213 19.0427C32.877 18.7634 32.8486 18.4739 32.7397 18.2107C32.6308 17.9475 32.4463 17.7226 32.2096 17.5642C31.9729 17.4059 31.6945 17.3214 31.4097 17.3213H31.4091C31.0273 17.3214 30.6612 17.4731 30.3913 17.743C30.1213 18.0129 29.9694 18.3789 29.9691 18.7606ZM20.1552 34.934C18.9853 34.8807 18.3494 34.6858 17.9268 34.5212C17.3665 34.3031 16.9668 34.0433 16.5465 33.6236C16.1262 33.2039 15.866 32.8046 15.6489 32.2443C15.4841 31.822 15.2892 31.1859 15.2361 30.016C15.1779 28.7511 15.1663 28.3712 15.1663 25.1667C15.1663 21.9622 15.1788 21.5833 15.2361 20.3174C15.2893 19.1475 15.4857 18.5127 15.6489 18.089C15.867 17.5288 16.1267 17.1291 16.5465 16.7088C16.9662 16.2885 17.3655 16.0284 17.9268 15.8112C18.3492 15.6465 18.9853 15.4516 20.1552 15.3984C21.4201 15.3403 21.8001 15.3286 25.0033 15.3286C28.2064 15.3286 28.5868 15.3412 29.8527 15.3984C31.0227 15.4517 31.6575 15.648 32.0812 15.8112C32.6415 16.0284 33.0412 16.2891 33.4615 16.7088C33.8818 17.1285 34.141 17.5288 34.3591 18.089C34.5238 18.5114 34.7187 19.1475 34.7719 20.3174C34.8301 21.5833 34.8417 21.9622 34.8417 25.1667C34.8417 28.3712 34.8301 28.7501 34.7719 30.016C34.7186 31.1859 34.5228 31.8218 34.3591 32.2443C34.141 32.8046 33.8812 33.2043 33.4615 33.6236C33.0418 34.0429 32.6415 34.3031 32.0812 34.5212C31.6588 34.6859 31.0227 34.8808 29.8527 34.934C28.5878 34.9922 28.2079 35.0038 25.0033 35.0038C21.7987 35.0038 21.4197 34.9922 20.1552 34.934ZM20.0559 13.2397C18.7784 13.2978 17.9054 13.5004 17.1431 13.797C16.3536 14.1033 15.6852 14.5143 15.0174 15.1811C14.3495 15.8479 13.9396 16.5173 13.6332 17.3068C13.3366 18.0695 13.134 18.942 13.0758 20.2194C13.0167 21.4988 13.0032 21.9079 13.0032 25.1666C13.0032 28.4253 13.0167 28.8343 13.0758 30.1138C13.134 31.3913 13.3366 32.2636 13.6332 33.0264C13.9396 33.8154 14.3496 34.4856 15.0174 35.1521C15.6851 35.8186 16.3536 36.229 17.1431 36.5362C17.9069 36.8328 18.7784 37.0354 20.0559 37.0935C21.336 37.1517 21.7444 37.1662 25.0033 37.1662C28.2621 37.1662 28.6712 37.1527 29.9506 37.0935C31.2282 37.0354 32.1006 36.8328 32.8634 36.5362C33.6524 36.229 34.3213 35.8189 34.9891 35.1521C35.657 34.4853 36.0661 33.8154 36.3733 33.0264C36.6699 32.2636 36.8734 31.3912 36.9307 30.1138C36.9888 28.8334 37.0024 28.4253 37.0024 25.1666C37.0024 21.9079 36.9888 21.4988 36.9307 20.2194C36.8725 18.9419 36.6699 18.0691 36.3733 17.3068C36.0661 16.5178 35.656 15.849 34.9891 15.1811C34.3223 14.5133 33.6524 14.1033 32.8644 13.797C32.1006 13.5004 31.2281 13.2969 29.9516 13.2397C28.6721 13.1815 28.2631 13.167 25.0042 13.167C21.7454 13.167 21.336 13.1805 20.0559 13.2397Z" fill="#F6F8FA"/>
<path d="M21.0039 25.1666C21.0039 22.9576 22.7942 21.1664 25.0033 21.1664C27.2123 21.1664 29.0036 22.9576 29.0036 25.1666C29.0036 27.3756 27.2123 29.1668 25.0033 29.1668C22.7942 29.1668 21.0039 27.3756 21.0039 25.1666ZM18.8414 25.1666C18.8414 28.5697 21.6 31.3282 25.0033 31.3282C28.4065 31.3282 31.1652 28.5697 31.1652 25.1666C31.1652 21.7635 28.4065 19.0049 25.0033 19.0049C21.6 19.0049 18.8414 21.7635 18.8414 25.1666ZM29.9691 18.7606C29.969 19.0454 30.0533 19.3239 30.2114 19.5607C30.3696 19.7976 30.5944 19.9822 30.8575 20.0913C31.1206 20.2004 31.4101 20.2291 31.6895 20.1736C31.9688 20.1182 32.2255 19.9811 32.4269 19.7798C32.6284 19.5785 32.7656 19.322 32.8213 19.0427C32.877 18.7634 32.8486 18.4739 32.7397 18.2107C32.6308 17.9475 32.4463 17.7226 32.2096 17.5642C31.9729 17.4059 31.6945 17.3214 31.4097 17.3213H31.4091C31.0273 17.3214 30.6612 17.4731 30.3913 17.743C30.1213 18.0129 29.9694 18.3789 29.9691 18.7606ZM20.1552 34.934C18.9853 34.8807 18.3494 34.6858 17.9268 34.5212C17.3665 34.3031 16.9668 34.0433 16.5465 33.6236C16.1262 33.2039 15.866 32.8046 15.6489 32.2443C15.4841 31.822 15.2892 31.1859 15.2361 30.016C15.1779 28.7511 15.1663 28.3712 15.1663 25.1667C15.1663 21.9622 15.1788 21.5833 15.2361 20.3174C15.2893 19.1475 15.4857 18.5127 15.6489 18.089C15.867 17.5288 16.1267 17.1291 16.5465 16.7088C16.9662 16.2885 17.3655 16.0284 17.9268 15.8112C18.3492 15.6465 18.9853 15.4516 20.1552 15.3984C21.4201 15.3403 21.8001 15.3286 25.0033 15.3286C28.2064 15.3286 28.5868 15.3412 29.8527 15.3984C31.0227 15.4517 31.6575 15.648 32.0812 15.8112C32.6415 16.0284 33.0412 16.2891 33.4615 16.7088C33.8818 17.1285 34.141 17.5288 34.3591 18.089C34.5238 18.5114 34.7187 19.1475 34.7719 20.3174C34.8301 21.5833 34.8417 21.9622 34.8417 25.1667C34.8417 28.3712 34.8301 28.7501 34.7719 30.016C34.7186 31.1859 34.5228 31.8218 34.3591 32.2443C34.141 32.8046 33.8812 33.2043 33.4615 33.6236C33.0418 34.0429 32.6415 34.3031 32.0812 34.5212C31.6588 34.6859 31.0227 34.8808 29.8527 34.934C28.5878 34.9922 28.2079 35.0038 25.0033 35.0038C21.7987 35.0038 21.4197 34.9922 20.1552 34.934ZM20.0559 13.2397C18.7784 13.2978 17.9054 13.5004 17.1431 13.797C16.3536 14.1033 15.6852 14.5143 15.0174 15.1811C14.3495 15.8479 13.9396 16.5173 13.6332 17.3068C13.3366 18.0695 13.134 18.942 13.0758 20.2194C13.0167 21.4988 13.0032 21.9079 13.0032 25.1666C13.0032 28.4253 13.0167 28.8343 13.0758 30.1138C13.134 31.3913 13.3366 32.2636 13.6332 33.0264C13.9396 33.8154 14.3496 34.4856 15.0174 35.1521C15.6851 35.8186 16.3536 36.229 17.1431 36.5362C17.9069 36.8328 18.7784 37.0354 20.0559 37.0935C21.336 37.1517 21.7444 37.1662 25.0033 37.1662C28.2621 37.1662 28.6712 37.1527 29.9506 37.0935C31.2282 37.0354 32.1006 36.8328 32.8634 36.5362C33.6524 36.229 34.3213 35.8189 34.9891 35.1521C35.657 34.4853 36.0661 33.8154 36.3733 33.0264C36.6699 32.2636 36.8734 31.3912 36.9307 30.1138C36.9888 28.8334 37.0024 28.4253 37.0024 25.1666C37.0024 21.9079 36.9888 21.4988 36.9307 20.2194C36.8725 18.9419 36.6699 18.0691 36.3733 17.3068C36.0661 16.5178 35.656 15.849 34.9891 15.1811C34.3223 14.5133 33.6524 14.1033 32.8644 13.797C32.1006 13.5004 31.2281 13.2969 29.9516 13.2397C28.6721 13.1815 28.2631 13.167 25.0042 13.167C21.7454 13.167 21.336 13.1805 20.0559 13.2397Z" fill="#F6F8FA"/>
<defs>
<linearGradient id="paint0_linear_1196_1395" x1="0.00341797" y1="50.1665" x2="50.0034" y2="0.167572" gradientUnits="userSpaceOnUse">
<stop stop-color="#A9C923"/>
<stop offset="1" stop-color="#A6DA79"/>
</linearGradient>
</defs>
</svg>
