<svg width="50" height="51" viewBox="0 0 50 51" fill="none" xmlns="http://www.w3.org/2000/svg">
<rect x="0.0012207" y="0.166504" width="49.9989" height="50" rx="24.9995" fill="url(#paint0_linear_1196_1401)"/>
<rect x="0.801221" y="0.966504" width="48.3989" height="48.4" rx="24.1995" stroke="white" stroke-opacity="0.2" stroke-width="1.6"/>
<path fill-rule="evenodd" clip-rule="evenodd" d="M33.5036 16.6541C31.2476 14.4063 28.2472 13.1678 25.0507 13.1665C18.4643 13.1665 13.1038 18.501 13.1012 25.0579C13.1003 27.1538 13.6506 29.1998 14.6962 31.0032L13.001 37.1657L19.3356 35.512C21.0809 36.4594 23.046 36.9587 25.0459 36.9595H25.0508C31.6365 36.9595 36.9975 31.6244 37.0002 25.0674C37.0014 21.8898 35.7597 18.9019 33.5036 16.6541ZM25.0508 34.951H25.0468C23.2646 34.9503 21.5166 34.4738 19.9917 33.5732L19.629 33.359L15.87 34.3404L16.8734 30.6929L16.6372 30.319C15.643 28.7452 15.1179 26.9262 15.1187 25.0587C15.1209 19.6088 19.5764 15.175 25.0548 15.175C27.7075 15.176 30.2012 16.2055 32.0764 18.0738C33.9516 19.9421 34.9837 22.4255 34.9827 25.0666C34.9804 30.5169 30.525 34.951 25.0508 34.951ZM30.4987 27.5482C30.2001 27.3995 28.7321 26.6806 28.4584 26.5814C28.1848 26.4823 27.9858 26.4327 27.7867 26.7302C27.5876 27.0276 27.0154 27.697 26.8412 27.8952C26.6671 28.0936 26.4929 28.1184 26.1943 27.9696C25.8958 27.8209 24.9337 27.5072 23.7933 26.4948C22.9057 25.7069 22.3064 24.7338 22.1323 24.4363C21.9581 24.1389 22.1138 23.978 22.2632 23.8299C22.3975 23.6968 22.5618 23.4828 22.7111 23.3093C22.8604 23.1358 22.9101 23.0119 23.0096 22.8136C23.1092 22.6152 23.0594 22.4417 22.9848 22.293C22.9101 22.1442 22.313 20.6817 22.0642 20.0867C21.8218 19.5073 21.5757 19.5857 21.3924 19.5766C21.2184 19.568 21.0192 19.5662 20.8202 19.5662C20.6211 19.5662 20.2977 19.6405 20.024 19.938C19.7503 20.2355 18.979 20.9544 18.979 22.4169C18.979 23.8795 20.0489 25.2924 20.1982 25.4907C20.3474 25.6891 22.3035 28.6905 25.2987 29.9776C26.011 30.2837 26.5672 30.4665 27.0008 30.6035C27.7161 30.8296 28.3669 30.7977 28.8814 30.7212C29.455 30.6359 30.6479 30.0024 30.8967 29.3083C31.1455 28.6142 31.1455 28.0192 31.0709 27.8953C30.9963 27.7713 30.7972 27.697 30.4987 27.5482Z" fill="#F6F8FA"/>
<defs>
<linearGradient id="paint0_linear_1196_1401" x1="0.0012207" y1="50.1665" x2="50.0012" y2="0.167572" gradientUnits="userSpaceOnUse">
<stop stop-color="#A9C923"/>
<stop offset="1" stop-color="#A6DA79"/>
</linearGradient>
</defs>
</svg>
