<svg width="24" height="24" viewBox="0 0 24 24" fill="none" xmlns="http://www.w3.org/2000/svg">
<path d="M17.3747 10.7072L20.1066 8.13662L20.1225 8.12068C20.6852 7.55801 21.0013 6.79486 21.0013 5.99912C21.0013 5.20338 20.6852 4.44023 20.1225 3.87756C19.5598 3.31489 18.7967 2.99878 18.0009 2.99878C17.2052 2.99878 16.4421 3.31489 15.8794 3.87756C15.8794 3.88318 15.8691 3.88787 15.8634 3.8935L13.2928 6.62537L5.51157 3.79412C5.37746 3.74534 5.23221 3.73584 5.09289 3.76673C4.95356 3.79761 4.82594 3.86761 4.72501 3.9685L2.47501 6.2185C2.3966 6.29696 2.33658 6.39184 2.29926 6.4963C2.26195 6.60076 2.24826 6.7122 2.2592 6.82258C2.27014 6.93297 2.30543 7.03955 2.36253 7.13465C2.41962 7.22975 2.4971 7.31101 2.58938 7.37256L8.57907 11.3654L7.18969 12.7501H5.25001C5.05136 12.7502 4.86086 12.829 4.72032 12.9694L2.47032 15.2194C2.38257 15.307 2.31788 15.4149 2.28204 15.5335C2.2462 15.6522 2.24032 15.7779 2.26493 15.8993C2.28955 16.0208 2.34388 16.1343 2.42307 16.2296C2.50227 16.325 2.60386 16.3992 2.71876 16.4457L6.17063 17.8266L7.54876 21.2719L7.55438 21.2869C7.60206 21.4023 7.67779 21.504 7.77472 21.5827C7.87164 21.6615 7.98668 21.7147 8.10941 21.7377C8.23214 21.7607 8.35867 21.7527 8.47752 21.7144C8.59637 21.6762 8.70378 21.6088 8.79001 21.5185L11.0278 19.2797C11.0978 19.2104 11.1535 19.1279 11.1916 19.037C11.2298 18.9461 11.2496 18.8486 11.25 18.7501V16.8104L12.6338 15.4266L16.6266 21.4163C16.6881 21.5086 16.7694 21.5861 16.8645 21.6432C16.9596 21.7003 17.0662 21.7355 17.1765 21.7465C17.2869 21.7574 17.3984 21.7437 17.5028 21.7064C17.6073 21.6691 17.7022 21.6091 17.7806 21.5307L20.0306 19.2807C20.1315 19.1798 20.2015 19.0521 20.2324 18.9128C20.2633 18.7735 20.2538 18.6282 20.205 18.4941L17.3747 10.7072ZM17.3681 19.8226L13.3753 13.8338C13.3141 13.7408 13.233 13.6626 13.1378 13.6049C13.0426 13.5472 12.9358 13.5114 12.825 13.5001C12.7997 13.5001 12.7753 13.5001 12.7509 13.5001C12.6524 13.5001 12.5547 13.5196 12.4637 13.5574C12.3726 13.5952 12.2899 13.6506 12.2203 13.7204L9.97032 15.9704C9.82959 16.1108 9.75035 16.3013 9.75001 16.5001V18.4397L8.52469 19.6651L7.44657 16.9688C7.40885 16.8752 7.35262 16.7902 7.28126 16.7188C7.2099 16.6474 7.12486 16.5912 7.03126 16.5535L4.33688 15.4754L5.56126 14.2501H7.50001C7.59853 14.2501 7.6961 14.2308 7.78714 14.1932C7.87819 14.1555 7.96093 14.1003 8.03063 14.0307L10.2806 11.7807C10.3592 11.7022 10.4194 11.6073 10.4568 11.5027C10.4942 11.3982 10.5079 11.2866 10.497 11.1761C10.4861 11.0656 10.4507 10.9589 10.3935 10.8637C10.3363 10.7685 10.2587 10.6872 10.1663 10.6257L4.17751 6.63193L5.44313 5.36725L13.245 8.20412C13.3825 8.25463 13.5317 8.26379 13.6743 8.23047C13.8169 8.19715 13.9467 8.12281 14.0475 8.01662L16.9481 4.93131C17.2309 4.65685 17.6102 4.50466 18.0042 4.50763C18.3982 4.5106 18.7753 4.66848 19.0538 4.94716C19.3324 5.22584 19.4901 5.60294 19.4929 5.99696C19.4957 6.39098 19.3433 6.77027 19.0688 7.05287L15.9872 9.95256C15.881 10.0534 15.8067 10.1831 15.7733 10.3257C15.74 10.4684 15.7492 10.6176 15.7997 10.7551L18.6366 18.5569L17.3681 19.8226Z" fill="#131313"/>
</svg>
