<svg width="32" height="32" viewBox="0 0 32 32" fill="none" xmlns="http://www.w3.org/2000/svg">
<path d="M17.7076 16.7074L7.70757 26.7074C7.51993 26.8951 7.26543 27.0005 7.00007 27.0005C6.7347 27.0005 6.48021 26.8951 6.29257 26.7074C6.10493 26.5198 5.99951 26.2653 5.99951 25.9999C5.99951 25.7346 6.10493 25.4801 6.29257 25.2924L15.5863 15.9999L6.29257 6.70745C6.10493 6.5198 5.99951 6.26531 5.99951 5.99995C5.99951 5.73458 6.10493 5.48009 6.29257 5.29245C6.48021 5.1048 6.7347 4.99939 7.00007 4.99939C7.26543 4.99939 7.51993 5.1048 7.70757 5.29245L17.7076 15.2924C17.8005 15.3853 17.8743 15.4956 17.9246 15.617C17.975 15.7384 18.0009 15.8685 18.0009 15.9999C18.0009 16.1314 17.975 16.2615 17.9246 16.3829C17.8743 16.5043 17.8005 16.6146 17.7076 16.7074ZM27.7076 15.2924L17.7076 5.29245C17.5199 5.1048 17.2654 4.99939 17.0001 4.99939C16.7347 4.99939 16.4802 5.1048 16.2926 5.29245C16.1049 5.48009 15.9995 5.73458 15.9995 5.99995C15.9995 6.26531 16.1049 6.5198 16.2926 6.70745L25.5863 15.9999L16.2926 25.2924C16.1049 25.4801 15.9995 25.7346 15.9995 25.9999C15.9995 26.2653 16.1049 26.5198 16.2926 26.7074C16.4802 26.8951 16.7347 27.0005 17.0001 27.0005C17.2654 27.0005 17.5199 26.8951 17.7076 26.7074L27.7076 16.7074C27.8005 16.6146 27.8743 16.5043 27.9246 16.3829C27.975 16.2615 28.0009 16.1314 28.0009 15.9999C28.0009 15.8685 27.975 15.7384 27.9246 15.617C27.8743 15.4956 27.8005 15.3853 27.7076 15.2924Z" fill="url(#paint0_linear_1253_2984)"/>
<defs>
<linearGradient id="paint0_linear_1253_2984" x1="5.99951" y1="27.0005" x2="28.0006" y2="4.99916" gradientUnits="userSpaceOnUse">
<stop stop-color="#A9C923"/>
<stop offset="1" stop-color="#A6DA79"/>
</linearGradient>
</defs>
</svg>
