<svg width="28" height="28" viewBox="0 0 28 28" fill="none" xmlns="http://www.w3.org/2000/svg">
<rect width="28" height="28" rx="14" fill="#EDEDED"/>
<path d="M19.3538 12.3535L14.3538 17.3535C14.3073 17.4 14.2522 17.4369 14.1915 17.4621C14.1308 17.4872 14.0657 17.5002 14 17.5002C13.9343 17.5002 13.8693 17.4872 13.8086 17.4621C13.7479 17.4369 13.6927 17.4 13.6463 17.3535L8.64628 12.3535C8.55246 12.2597 8.49976 12.1325 8.49976 11.9998C8.49976 11.8671 8.55246 11.7399 8.64628 11.646C8.7401 11.5522 8.86735 11.4995 9.00003 11.4995C9.13272 11.4995 9.25996 11.5522 9.35378 11.646L14 16.2929L18.6463 11.646C18.6927 11.5996 18.7479 11.5627 18.8086 11.5376C18.8693 11.5125 18.9343 11.4995 19 11.4995C19.0657 11.4995 19.1308 11.5125 19.1915 11.5376C19.2522 11.5627 19.3073 11.5996 19.3538 11.646C19.4002 11.6925 19.4371 11.7476 19.4622 11.8083C19.4874 11.869 19.5003 11.9341 19.5003 11.9998C19.5003 12.0655 19.4874 12.1305 19.4622 12.1912C19.4371 12.2519 19.4002 12.3071 19.3538 12.3535Z" fill="#131313"/>
</svg>
