<svg width="17" height="17" viewBox="0 0 17 17" fill="none" xmlns="http://www.w3.org/2000/svg">
<path d="M10.1836 3.037C10.2006 2.97355 10.2299 2.91406 10.2699 2.86193C10.3099 2.80981 10.3597 2.76607 10.4166 2.73322C10.4735 2.70037 10.5363 2.67905 10.6014 2.67047C10.6665 2.6619 10.7327 2.66624 10.7961 2.68325C11.723 2.9251 12.5687 3.40965 13.2461 4.08702C13.9235 4.76439 14.408 5.61009 14.6499 6.537C14.6669 6.60045 14.6712 6.66662 14.6627 6.73175C14.6541 6.79687 14.6328 6.85967 14.5999 6.91655C14.5671 6.97343 14.5233 7.02328 14.4712 7.06325C14.4191 7.10322 14.3596 7.13253 14.2961 7.1495C14.2539 7.1606 14.2104 7.16627 14.1668 7.16638C14.0566 7.16637 13.9495 7.12998 13.8621 7.06284C13.7747 6.99571 13.712 6.90159 13.6836 6.79513C13.4864 6.03845 13.0909 5.34807 12.538 4.79514C11.9851 4.24221 11.2947 3.84674 10.538 3.6495C10.4745 3.6326 10.4149 3.60334 10.3627 3.56339C10.3106 3.52345 10.2667 3.47361 10.2338 3.41672C10.2009 3.35983 10.1795 3.29702 10.1709 3.23186C10.1623 3.1667 10.1666 3.10049 10.1836 3.037ZM10.038 5.6495C10.8999 5.8795 11.4536 6.43325 11.6836 7.29513C11.712 7.40159 11.7747 7.49571 11.8621 7.56284C11.9495 7.62998 12.0566 7.66637 12.1668 7.66638C12.2104 7.66627 12.2539 7.6606 12.2961 7.6495C12.3596 7.63253 12.4191 7.60322 12.4712 7.56325C12.5233 7.52328 12.5671 7.47343 12.5999 7.41655C12.6328 7.35967 12.6541 7.29687 12.6627 7.23175C12.6712 7.16662 12.6669 7.10045 12.6499 7.037C12.3299 5.8395 11.4936 5.00325 10.2961 4.68325C10.2327 4.6663 10.1665 4.66202 10.1014 4.67064C10.0363 4.67926 9.97355 4.70062 9.91671 4.7335C9.85986 4.76637 9.81005 4.81013 9.77011 4.86226C9.73017 4.91438 9.70089 4.97387 9.68394 5.03731C9.66699 5.10076 9.66271 5.16692 9.67133 5.23202C9.67995 5.29712 9.70131 5.35989 9.73418 5.41674C9.76706 5.47358 9.81082 5.5234 9.86294 5.56334C9.91507 5.60327 9.97456 5.63255 10.038 5.6495ZM15.1593 11.6089C15.0478 12.4558 14.6319 13.2331 13.9892 13.7958C13.3465 14.3584 12.5209 14.6679 11.6668 14.6664C6.70425 14.6664 2.66675 10.6289 2.66675 5.66638C2.66522 4.81218 2.97468 3.98664 3.53734 3.34394C4.09999 2.70123 4.87736 2.28532 5.72425 2.17388C5.93841 2.14773 6.15528 2.19154 6.3425 2.29878C6.52971 2.40601 6.67722 2.57092 6.763 2.76888L8.083 5.71575V5.72325C8.14868 5.87479 8.17581 6.04023 8.16196 6.2048C8.14811 6.36937 8.09371 6.52795 8.00363 6.66638C7.99238 6.68325 7.9805 6.69888 7.968 6.7145L6.66675 8.257C7.13488 9.20825 8.12988 10.1945 9.09363 10.6639L10.6149 9.3695C10.6298 9.35694 10.6455 9.34526 10.6618 9.3345C10.8001 9.24225 10.9592 9.18594 11.1247 9.17067C11.2903 9.15539 11.457 9.18162 11.6099 9.247L11.618 9.25075L14.5624 10.5701C14.7607 10.6556 14.926 10.803 15.0336 10.9902C15.1412 11.1775 15.1853 11.3945 15.1593 11.6089ZM14.1668 11.4839C14.1668 11.4839 14.1624 11.4839 14.1599 11.4839L11.2224 10.1683L9.7005 11.4626C9.68574 11.4751 9.6703 11.4868 9.65425 11.4976C9.51035 11.5936 9.34401 11.6507 9.17147 11.6632C8.99893 11.6756 8.82611 11.6432 8.66988 11.5689C7.49925 11.0033 6.33238 9.84513 5.76613 8.687C5.69115 8.53191 5.6575 8.36008 5.66845 8.18817C5.6794 8.01625 5.73458 7.85008 5.82863 7.70575C5.83923 7.68881 5.85114 7.67272 5.86425 7.65763L7.16675 6.11325L5.85425 3.17575C5.85401 3.17326 5.85401 3.17075 5.85425 3.16825C5.24816 3.24731 4.69168 3.5446 4.28901 4.00445C3.88635 4.46429 3.66512 5.05515 3.66675 5.66638C3.66907 7.7874 4.51267 9.82088 6.01246 11.3207C7.51225 12.8205 9.54573 13.6641 11.6668 13.6664C12.2776 13.6685 12.8683 13.448 13.3284 13.0462C13.7885 12.6444 14.0865 12.0888 14.1668 11.4833V11.4839Z" fill="#646464"/>
</svg>
