<svg width="24" height="24" viewBox="0 0 24 24" fill="none" xmlns="http://www.w3.org/2000/svg">
<path d="M21.5306 7.28068L9.53055 19.2807C9.4609 19.3504 9.37818 19.4057 9.28713 19.4435C9.19609 19.4812 9.09849 19.5006 8.99993 19.5006C8.90137 19.5006 8.80377 19.4812 8.71272 19.4435C8.62168 19.4057 8.53896 19.3504 8.4693 19.2807L3.2193 14.0307C3.07857 13.8899 2.99951 13.6991 2.99951 13.5001C2.99951 13.301 3.07857 13.1102 3.2193 12.9694C3.36003 12.8287 3.55091 12.7496 3.74993 12.7496C3.94895 12.7496 4.13982 12.8287 4.28055 12.9694L8.99993 17.6897L20.4693 6.21943C20.61 6.07869 20.8009 5.99963 20.9999 5.99963C21.199 5.99963 21.3898 6.07869 21.5306 6.21943C21.6713 6.36016 21.7503 6.55103 21.7503 6.75005C21.7503 6.94907 21.6713 7.13995 21.5306 7.28068Z" fill="url(#paint0_linear_1281_1516)"/>
<defs>
<linearGradient id="paint0_linear_1281_1516" x1="2.99951" y1="19.5006" x2="15.8035" y2="1.7178" gradientUnits="userSpaceOnUse">
<stop stop-color="#A9C923"/>
<stop offset="1" stop-color="#A6DA79"/>
</linearGradient>
</defs>
</svg>
