<svg width="44" height="44" viewBox="0 0 44 44" fill="none" xmlns="http://www.w3.org/2000/svg">
<path d="M0 6C0 2.68629 2.68629 0 6 0H38C41.3137 0 44 2.68629 44 6V38C44 41.3137 41.3137 44 38 44H6C2.68629 44 0 41.3137 0 38V6Z" fill="url(#paint0_linear_1208_837)"/>
<path d="M34.7076 15.7074L18.7076 31.7074C18.6147 31.8004 18.5044 31.8742 18.383 31.9245C18.2616 31.9748 18.1315 32.0007 18.0001 32.0007C17.8687 32.0007 17.7385 31.9748 17.6171 31.9245C17.4957 31.8742 17.3854 31.8004 17.2926 31.7074L10.2926 24.7074C10.1049 24.5198 9.99951 24.2653 9.99951 23.9999C9.99951 23.7346 10.1049 23.4801 10.2926 23.2924C10.4802 23.1048 10.7347 22.9994 11.0001 22.9994C11.2654 22.9994 11.5199 23.1048 11.7076 23.2924L18.0001 29.5862L33.2926 14.2924C33.4802 14.1048 33.7347 13.9994 34.0001 13.9994C34.2654 13.9994 34.5199 14.1048 34.7076 14.2924C34.8952 14.4801 35.0006 14.7346 35.0006 14.9999C35.0006 15.2653 34.8952 15.5198 34.7076 15.7074Z" fill="#FDFDFD"/>
<defs>
<linearGradient id="paint0_linear_1208_837" x1="0" y1="44" x2="44" y2="0" gradientUnits="userSpaceOnUse">
<stop stop-color="#009ADA"/>
<stop offset="1" stop-color="#004681"/>
</linearGradient>
</defs>
</svg>
