<?xml version="1.0" encoding="UTF-8" standalone="no"?>
<svg
   xmlns:dc="http://purl.org/dc/elements/1.1/"
   xmlns:cc="http://creativecommons.org/ns#"
   xmlns:rdf="http://www.w3.org/1999/02/22-rdf-syntax-ns#"
   xmlns:svg="http://www.w3.org/2000/svg"
   xmlns="http://www.w3.org/2000/svg"
   viewBox="0 0 1122.52 793.70667"
   height="793.70667"
   width="1122.52"
   xml:space="preserve"
   id="svg2"
   version="1.1"><metadata
     id="metadata8"><rdf:RDF><cc:Work
         rdf:about=""><dc:format>image/svg+xml</dc:format><dc:type
           rdf:resource="http://purl.org/dc/dcmitype/StillImage" /></cc:Work></rdf:RDF></metadata><defs
     id="defs6"><clipPath
       id="clipPath18"
       clipPathUnits="userSpaceOnUse"><path
         id="path16"
         d="M 0,595.28 H 841.89 V 0 H 0 Z" /></clipPath></defs><g
     transform="matrix(1.3333333,0,0,-1.3333333,0,793.70667)"
     id="g10"><g
       id="g12"><g
         clip-path="url(#clipPath18)"
         id="g14"><g
           transform="translate(523.1045,369.5596)"
           id="g20"><path
             id="path22"
             style="fill:#0a487e;fill-opacity:1;fill-rule:nonzero;stroke:none"
             d="M 0,0 3.121,5.631 9.82,9.875 11.823,7.423 4.844,-5.774 Z m -13.331,74.835 -2.744,1.503 2.342,2.846 z m -91.905,-2.722 1.466,1.893 10.953,-8.267 -2.649,-0.339 z m -1.489,3.923 -1.388,-2.438 -6.439,2.878 1.201,3.831 z m 3.222,1.539 -3.222,3.002 0.743,3.208 z m 74.945,30.492 3.895,3.043 0.51,-5.32 3.22,-4.267 -1.205,-3.986 -6.108,1.374 2.507,3.698 z m -9.98,9.664 -2.997,9.124 9.141,0.568 3.153,-4.696 z m 3.647,-15.547 3.662,4.71 1.97,-5.567 -2.956,-2.503 z m 5.554,52.826 -3.85,-12.098 -10.833,-11.974 -13.668,-1.709 -4.854,-7.703 -5.447,1.59 -4.323,13.055 0.899,15.429 -4.66,5.637 -5.737,-0.578 -2.337,5.087 12.331,11.19 40.793,-3.263 7.914,-11.048 z m 14.302,-50.779 3.161,0.839 1.288,-3.538 9.046,-0.989 0.967,2.534 10.246,1.851 -0.884,2.58 -6.974,-0.88 -0.596,4.747 5.124,3.199 -2.096,3.135 -7.363,-6.732 1.595,-2.639 -1.398,-4.711 -6.003,-0.601 -0.407,4.33 -6.654,-0.123 1.777,6.177 13.592,12.616 11.355,0.99 16.033,-8.18 -4.367,-4.66 -6.41,2.451 3.162,-5.98 15.177,6.718 6.406,-1.458 c -7.694,17.455 -19.796,32.517 -35.953,45.078 -15.847,12.185 -32.696,19.994 -50.686,23.407 -11.612,2.236 -23.719,2.694 -36.29,1.265 -2.098,-0.261 -4.044,-0.5 -5.974,-0.889 -2.631,-0.458 -7.46,-1.636 -14.49,-3.226 -7.02,-1.595 -14.586,-4.514 -22.656,-9.073 l 34.034,6.534 16.139,-4.491 -18.701,-14.677 15.787,-21.978 -8.015,-6.108 -10.975,5.009 3.3,7.638 -3.942,0.921 -3.157,-5.347 0.514,-5.178 -8.762,3.148 -5.907,-5.975 2.452,-3.804 5.929,-3.226 3.914,-8.579 3.653,6.975 -0.917,1.732 1.48,7.415 13.312,-5.568 7.648,-17.042 -17.624,-6.305 -1.049,-5.234 -2.228,0.848 -3.528,-2.419 -0.041,-4.12 -7.516,-4.486 0.225,-6.338 -2.772,0.632 -1.967,4.432 -9.453,1.938 -5.476,-6.076 3.02,-4.862 1.746,-0.344 3.941,1.352 1.755,-1.631 -2.053,-5.215 3.418,-1.127 -0.485,-6.306 6.401,-1.461 6.567,1.96 4.051,-2.9 8.198,-2.081 -0.958,-5.943 6.828,-1.407 -0.775,-7.331 4.648,-0.967 9.631,-11.264 -4.06,-3.767 -3.166,-8.615 -33.452,-26.005 c 0.426,-2.227 0.279,-4.5 -0.435,-6.722 l -4.482,-2.681 2.355,-5.229 -3.601,-2.873 -4.674,10.201 3.047,14.119 9.925,27.169 -5.049,4.05 -2.044,18.582 3.111,3.373 1.155,5.526 -5.943,1.095 -1.513,6.471 -3.725,0.247 -10.531,10.572 -2.886,6.021 -4.523,1.136 -9.463,22.34 2.929,9.444 -2.631,8.578 -3.387,-0.146 -1.361,5.224 2.668,-0.949 -4.991,9.294 -4.05,1.769 c -0.083,-0.445 -0.321,-0.748 -0.422,-1.183 -0.115,-0.165 -0.211,-0.462 -0.192,-0.605 l -0.308,0.105 c -2.924,-3.766 -5.554,-7.629 -8.024,-11.639 -0.375,-0.463 -0.591,-1.054 -0.81,-1.507 -0.266,-0.17 -0.381,-0.339 -0.487,-0.629 -13.431,-22.788 -18.522,-47.808 -15.085,-75.284 2.883,-23.013 11.209,-43.079 24.81,-60.089 5.526,-6.814 11.987,-13.084 19.218,-18.848 0.472,-0.362 1.1,-0.852 1.586,-1.347 26.354,-20.36 56.001,-28.553 89.07,-24.411 14.369,1.801 27.474,5.706 39.49,11.599 15.603,7.771 29.346,19.127 40.944,34.042 9.009,11.75 15.687,24.063 19.847,37.196 l -4.184,-0.527 -1.104,12.185 -2.617,1.668 1.8,6.021 -20.112,8.963 2.437,-7.066 3.758,0.614 3.067,-5.284 L 23.646,40.926 13.257,39.065 8.267,61.963 5.484,62.6 4.308,58.481 7.73,42.475 11.727,37.594 19.421,36.288 0.977,17.115 2.14,14.719 1.054,7.497 -3.57,4.793 l -1.617,-5.16 -13.83,-11.791 -8.052,2.099 -2.327,24.232 2.727,3.038 1.259,5.815 -4.188,9.678 2.845,1.064 -4.962,5.755 -12.152,3.157 -5.747,8.483 2.906,15.254 19.195,11.892 8.885,-0.871 1.605,-3.629 -1.169,-1.994 6.489,-4.284 4.453,2.832 2.259,-3.272 9.238,-2.507 2.154,1.957 1.302,5.54 -4.913,-4.857 -3.936,8.716 -0.733,-7.745 -4.12,4.597 0.615,6.437 -4.482,8.662 -1.283,-1.027 3.281,-8.083 -3.973,-4.596 -0.377,6.465 -4.095,5.568 -3.804,-2.456 -1.43,1.242 -12.464,-7.937 -1.411,11.3 7.038,-1.952 1.998,3.231 -1.742,3.749 5.16,2.909 3.007,-0.192 5.864,3.991 z" /></g><g
           transform="translate(666.6035,392.998)"
           id="g24"><path
             id="path26"
             style="fill:#a9ca24;fill-opacity:1;fill-rule:nonzero;stroke:none"
             d="m 0,0 c -1.261,-1.292 -2.952,-2.488 -4.94,-3.597 l -3.318,-1.695 -2.511,-29.777 -5.045,-2.763 -2.745,27.563 -19.846,-9.989 -0.798,-7.328 -3.707,-2.02 -0.748,9.402 -7.414,5.861 3.745,1.897 6.52,-3.441 19.305,11.072 -21.307,17.44 5.032,2.754 26.183,-14.43 3.029,1.801 c 2.108,1.255 4.143,1.943 5.961,2.172 l 2.499,0.445 C 1.837,5.756 2.978,5.614 3.203,4.936 3.568,4.267 3.11,3.355 1.74,1.906 Z" /></g><g
           transform="translate(255.646,442.1772)"
           id="g28"><path
             id="path30"
             style="fill:#a9ca24;fill-opacity:1;fill-rule:nonzero;stroke:none"
             d="m 0,0 c 0.344,4.014 1.27,7.955 2.603,11.941 7.809,22.523 30.891,40.725 69.099,54.71 7.987,2.992 16.299,5.577 24.648,7.91 l 0.037,-0.29 C 56.552,60.937 31.981,43.258 22.408,21.235 15.489,5.201 18.316,-10.586 31.207,-26.271 42.75,-40.413 60.864,-52.73 85.687,-63.086 c 27.916,-11.383 60.194,-19.096 96.837,-23.151 49.685,-5.251 96.872,-3.029 141.684,6.837 26.068,5.677 47.404,13.027 64.158,21.78 -3.221,-2.671 -6.989,-5.274 -11.072,-7.904 -11.708,-7.136 -26.211,-13.491 -43.253,-18.875 -10.773,-3.346 -22.871,-6.265 -36.004,-8.904 -40.087,-7.996 -81.527,-9.788 -124.431,-5.38 -4.473,0.573 -8.94,1.141 -13.537,1.7 -17.853,2.301 -34.401,5.325 -49.477,9.247 -15.09,3.923 -29.446,8.914 -43.253,14.999 C 43.355,-62.289 25.515,-49.926 13.693,-35.83 3.818,-23.732 -0.783,-11.855 0,0" /></g><g
           transform="translate(245.4917,407.7632)"
           id="g32"><path
             id="path34"
             style="fill:#a9ca24;fill-opacity:1;fill-rule:nonzero;stroke:none"
             d="m 0,0 c -0.243,1.943 -0.339,3.918 -0.293,5.773 0.21,3.992 0.834,8.034 2.162,12.167 6.851,23.393 29.41,43.496 67.656,60.474 8.193,3.717 16.423,7.016 24.827,9.908 l 0.055,-0.418 C 54.531,71.44 30.235,51.676 21.473,28.896 15.2,12.244 18.875,-3.588 32.636,-18.445 c 12.436,-13.33 31.522,-24.259 57.381,-32.768 28.979,-9.559 62.23,-14.884 99.905,-15.975 50.925,-1.553 98.932,4.321 144.156,17.78 26.234,7.676 47.633,16.735 64.359,26.899 -3.188,-2.951 -6.929,-5.82 -10.965,-8.739 -11.59,-8.115 -26.097,-15.598 -43.235,-22.421 -10.815,-4.185 -22.936,-8.107 -36.215,-11.759 -19.338,-5.252 -38.96,-9.123 -59.187,-11.658 -21.905,-2.745 -44.426,-3.863 -67.454,-3.345 -4.568,0.27 -9.274,0.541 -13.963,0.66 -18.256,0.958 -35.215,2.809 -50.709,5.544 -15.543,3.012 -30.491,6.948 -44.834,11.81 -25.052,8.771 -43.867,19.869 -56.451,33.176 C 6.452,-19.746 1.237,-9.912 0,0" /></g><g
           transform="translate(193.4258,247.3193)"
           id="g36"><path
             id="path38"
             style="fill:#0a487e;fill-opacity:1;fill-rule:nonzero;stroke:none"
             d="m 0,0 c 0.38,2.159 0.605,4.298 0.679,6.418 0.068,2.117 -0.184,4.02 -0.748,5.707 -0.568,1.688 -1.558,3.048 -2.974,4.086 -1.42,1.038 -3.381,1.556 -5.888,1.556 -2.593,0 -4.761,-0.518 -6.498,-1.556 -1.736,-1.038 -3.189,-2.398 -4.353,-4.086 -1.164,-1.687 -2.08,-3.59 -2.754,-5.707 C -23.215,4.298 -23.741,2.159 -24.122,0 l -1.58,-8.949 h 24.121 z m -11.117,-63.028 6.933,39.294 h -24.121 l -6.934,-39.294 h -18.806 l 11.507,65.232 c 1.796,10.201 5.773,17.811 11.932,22.823 6.159,5.013 14.252,7.525 24.283,7.525 10.287,0 17.551,-2.575 21.789,-7.72 C 19.7,19.688 20.947,12.146 19.191,2.204 L 7.689,-63.028 Z" /></g><g
           transform="translate(272.8765,204.3936)"
           id="g40"><path
             id="path42"
             style="fill:#0a487e;fill-opacity:1;fill-rule:nonzero;stroke:none"
             d="m 0,0 c -0.734,-4.151 -2.255,-7.632 -4.569,-10.441 -2.309,-2.812 -5.064,-5.059 -8.253,-6.746 -3.199,-1.683 -6.668,-2.873 -10.42,-3.564 -3.758,-0.691 -7.447,-1.038 -11.076,-1.038 -4.152,0 -8.006,0.453 -11.566,1.36 -3.556,0.91 -6.595,2.315 -9.11,4.217 -2.52,1.9 -4.354,4.364 -5.504,7.392 -1.154,3.026 -1.397,6.699 -0.719,11.024 h 16.341 c -0.706,-4.497 0.183,-7.806 2.663,-9.92 2.479,-2.123 5.924,-3.179 10.333,-3.179 1.379,0 2.9,0.172 4.564,0.521 1.658,0.342 3.221,0.861 4.683,1.554 1.462,0.691 2.731,1.621 3.799,2.788 1.068,1.166 1.751,2.572 2.043,4.216 0.303,1.727 0.184,3.155 -0.352,4.28 -0.536,1.122 -1.453,2.051 -2.75,2.786 -1.296,0.733 -2.978,1.383 -5.041,1.945 -2.057,0.562 -4.518,1.105 -7.363,1.621 -3.928,0.781 -7.396,1.687 -10.411,2.726 -3.016,1.037 -5.49,2.332 -7.419,3.889 -1.93,1.556 -3.291,3.414 -4.079,5.577 -0.784,2.161 -0.903,4.798 -0.353,7.91 0.596,3.372 1.889,6.292 3.877,8.754 1.989,2.464 4.45,4.518 7.378,6.161 2.923,1.644 6.163,2.854 9.714,3.629 3.556,0.78 7.149,1.17 10.778,1.17 3.63,0 7.135,-0.347 10.517,-1.038 3.377,-0.693 6.305,-1.861 8.785,-3.501 2.474,-1.644 4.316,-3.824 5.526,-6.549 1.201,-2.724 1.535,-6.119 0.99,-10.182 h -15.562 c 0.513,3.891 -0.362,6.763 -2.63,8.623 -2.265,1.859 -5.21,2.792 -8.845,2.792 -2.332,0 -4.353,-0.282 -6.049,-0.846 -1.699,-0.564 -3.097,-1.252 -4.192,-2.076 -1.095,-0.82 -1.953,-1.75 -2.566,-2.786 -0.615,-1.038 -0.999,-1.991 -1.15,-2.854 -0.367,-2.074 0.324,-3.761 2.089,-5.058 1.76,-1.297 3.927,-2.356 6.507,-3.176 2.58,-0.824 5.251,-1.469 8.023,-1.946 2.769,-0.476 4.932,-0.973 6.48,-1.492 2.214,-0.691 4.317,-1.489 6.319,-2.398 2.003,-0.908 3.722,-2.075 5.156,-3.501 1.434,-1.428 2.493,-3.159 3.17,-5.188 C 0.435,5.423 0.518,2.938 0,0" /></g><g
           transform="translate(337.0664,204.3936)"
           id="g44"><path
             id="path46"
             style="fill:#0a487e;fill-opacity:1;fill-rule:nonzero;stroke:none"
             d="m 0,0 c -0.733,-4.151 -2.254,-7.632 -4.563,-10.441 -2.311,-2.812 -5.064,-5.059 -8.258,-6.746 -3.195,-1.683 -6.668,-2.873 -10.421,-3.564 -3.753,-0.691 -7.446,-1.038 -11.075,-1.038 -4.152,0 -8.006,0.453 -11.562,1.36 -3.56,0.91 -6.599,2.315 -9.114,4.217 -2.516,1.9 -4.354,4.364 -5.504,7.392 -1.15,3.026 -1.393,6.699 -0.714,11.024 h 16.34 c -0.71,-4.497 0.179,-7.806 2.658,-9.92 2.48,-2.123 5.925,-3.179 10.334,-3.179 1.383,0 2.904,0.172 4.568,0.521 1.659,0.342 3.217,0.861 4.684,1.554 1.461,0.691 2.726,1.621 3.798,2.788 1.068,1.166 1.751,2.572 2.039,4.216 0.307,1.727 0.188,3.155 -0.348,4.28 -0.541,1.122 -1.452,2.051 -2.749,2.786 -1.297,0.733 -2.979,1.383 -5.041,1.945 -2.062,0.562 -4.518,1.105 -7.364,1.621 -3.927,0.781 -7.4,1.687 -10.416,2.726 -3.015,1.037 -5.49,2.332 -7.419,3.889 -1.929,1.556 -3.286,3.414 -4.073,5.577 -0.784,2.161 -0.904,4.798 -0.358,7.91 0.596,3.372 1.888,6.292 3.881,8.754 1.989,2.464 4.446,4.518 7.374,6.161 2.928,1.644 6.162,2.854 9.719,3.629 3.551,0.78 7.144,1.17 10.773,1.17 3.634,0 7.139,-0.347 10.517,-1.038 3.381,-0.693 6.31,-1.861 8.789,-3.501 2.475,-1.644 4.317,-3.824 5.522,-6.549 1.205,-2.724 1.535,-6.119 0.994,-10.182 h -15.566 c 0.513,3.891 -0.363,6.763 -2.626,8.623 -2.269,1.859 -5.215,2.792 -8.844,2.792 -2.337,0 -4.354,-0.282 -6.054,-0.846 -1.699,-0.564 -3.097,-1.252 -4.188,-2.076 -1.1,-0.82 -1.957,-1.75 -2.566,-2.786 -0.619,-1.038 -1.003,-1.991 -1.155,-2.854 -0.366,-2.074 0.33,-3.761 2.094,-5.058 1.76,-1.297 3.927,-2.356 6.507,-3.176 2.576,-0.824 5.252,-1.469 8.019,-1.946 2.773,-0.476 4.931,-0.973 6.485,-1.492 2.209,-0.691 4.316,-1.489 6.319,-2.398 1.998,-0.908 3.716,-2.075 5.151,-3.501 1.438,-1.428 2.493,-3.159 3.17,-5.188 C 0.44,5.423 0.519,2.938 0,0" /></g><g
           transform="translate(374.6699,270.5312)"
           id="g48"><path
             id="path50"
             style="fill:#0a487e;fill-opacity:1;fill-rule:nonzero;stroke:none"
             d="m 0,0 c -0.261,-1.47 -0.797,-2.767 -1.599,-3.888 -0.802,-1.128 -1.792,-2.098 -2.978,-2.921 -1.183,-0.82 -2.439,-1.447 -3.767,-1.879 -1.329,-0.433 -2.644,-0.648 -3.941,-0.648 -1.297,0 -2.557,0.215 -3.776,0.648 -1.219,0.432 -2.277,1.059 -3.171,1.879 -0.889,0.823 -1.54,1.793 -1.948,2.921 -0.408,1.121 -0.481,2.418 -0.219,3.888 0.242,1.382 0.769,2.659 1.58,3.827 0.811,1.168 1.805,2.16 2.988,2.984 1.186,0.82 2.461,1.445 3.836,1.88 1.37,0.432 2.708,0.649 4.004,0.649 1.297,0 2.535,-0.217 3.713,-0.649 1.177,-0.435 2.213,-1.06 3.102,-1.88 C -1.283,5.987 -0.637,4.995 -0.238,3.827 0.161,2.659 0.243,1.382 0,0 m -34.405,-86.24 11.823,67.048 H -5.595 L -17.418,-86.24 Z" /></g><g
           transform="translate(429.0137,204.3936)"
           id="g52"><path
             id="path54"
             style="fill:#0a487e;fill-opacity:1;fill-rule:nonzero;stroke:none"
             d="m 0,0 c -0.733,-4.151 -2.256,-7.632 -4.564,-10.441 -2.31,-2.812 -5.064,-5.059 -8.258,-6.746 -3.194,-1.683 -6.667,-2.873 -10.421,-3.564 -3.752,-0.691 -7.446,-1.038 -11.075,-1.038 -4.152,0 -8.005,0.453 -11.561,1.36 -3.561,0.91 -6.6,2.315 -9.115,4.217 -2.516,1.9 -4.354,4.364 -5.504,7.392 -1.149,3.026 -1.393,6.699 -0.715,11.024 h 16.341 c -0.71,-4.497 0.179,-7.806 2.658,-9.92 2.479,-2.123 5.925,-3.179 10.333,-3.179 1.384,0 2.906,0.172 4.569,0.521 1.659,0.342 3.217,0.861 4.683,1.554 1.462,0.691 2.727,1.621 3.799,2.788 1.068,1.166 1.751,2.572 2.04,4.216 0.307,1.727 0.187,3.155 -0.349,4.28 -0.541,1.122 -1.453,2.051 -2.75,2.786 -1.297,0.733 -2.978,1.383 -5.04,1.945 -2.062,0.562 -4.518,1.105 -7.364,1.621 -3.927,0.781 -7.4,1.687 -10.416,2.726 -3.015,1.037 -5.489,2.332 -7.418,3.889 -1.93,1.556 -3.286,3.414 -4.075,5.577 -0.783,2.161 -0.902,4.798 -0.357,7.91 0.596,3.372 1.888,6.292 3.881,8.754 1.99,2.464 4.446,4.518 7.373,6.161 2.929,1.644 6.164,2.854 9.72,3.629 3.551,0.78 7.144,1.17 10.773,1.17 3.634,0 7.14,-0.347 10.517,-1.038 3.382,-0.693 6.311,-1.861 8.789,-3.501 2.475,-1.644 4.317,-3.824 5.522,-6.549 C 3.221,34.82 3.552,31.425 3.01,27.362 h -15.567 c 0.514,3.891 -0.361,6.763 -2.625,8.623 -2.268,1.859 -5.215,2.792 -8.844,2.792 -2.337,0 -4.353,-0.282 -6.053,-0.846 -1.701,-0.564 -3.099,-1.252 -4.189,-2.076 -1.1,-0.82 -1.957,-1.75 -2.566,-2.786 -0.618,-1.038 -1.004,-1.991 -1.155,-2.854 -0.366,-2.074 0.33,-3.761 2.094,-5.058 1.76,-1.297 3.928,-2.356 6.508,-3.176 2.575,-0.824 5.251,-1.469 8.019,-1.946 2.772,-0.476 4.93,-0.973 6.484,-1.492 2.208,-0.691 4.317,-1.489 6.319,-2.398 1.999,-0.908 3.717,-2.075 5.151,-3.501 1.438,-1.428 2.493,-3.159 3.172,-5.188 C 0.439,5.423 0.518,2.938 0,0" /></g><g
           transform="translate(459.1016,240.4453)"
           id="g56"><path
             id="path58"
             style="fill:#0a487e;fill-opacity:1;fill-rule:nonzero;stroke:none"
             d="M 0,0 -9.902,-56.154 H -26.895 L -16.992,0 h -7.001 l 1.919,10.894 h 7.003 L -12.51,25.42 5.967,33.85 1.92,10.894 H 8.922 L 7.002,0 Z" /></g><g
           transform="translate(510.4248,238.0449)"
           id="g60"><path
             id="path62"
             style="fill:#0a487e;fill-opacity:1;fill-rule:nonzero;stroke:none"
             d="m 0,0 c -2.066,1.513 -4.747,2.271 -8.028,2.271 -2.942,0 -5.559,-0.5 -7.855,-1.492 -2.292,-0.994 -4.28,-2.333 -5.957,-4.021 -1.682,-1.687 -3.089,-3.653 -4.22,-5.901 -1.132,-2.247 -2.002,-4.626 -2.617,-7.132 L -28.929,-17.702 3.794,-6.42 C 3.331,-3.652 2.066,-1.515 0,0 m 11.887,-39.943 c -2.402,-3.329 -5.188,-6.141 -8.355,-8.43 -3.176,-2.29 -6.68,-4.041 -10.524,-5.252 -3.845,-1.211 -7.887,-1.815 -12.121,-1.815 -5.019,0 -9.441,0.886 -13.281,2.66 -3.835,1.77 -6.973,4.19 -9.416,7.262 -2.443,3.066 -4.115,6.718 -5.003,10.957 -0.905,4.234 -0.914,8.82 -0.042,13.749 0.898,5.099 2.551,9.833 4.967,14.2 2.41,4.362 5.389,8.147 8.94,11.346 3.547,3.198 7.621,5.707 12.218,7.524 4.6,1.812 9.495,2.722 14.68,2.722 3.891,0 7.539,-0.518 10.945,-1.556 3.403,-1.037 6.323,-2.615 8.761,-4.733 2.438,-2.12 4.284,-4.756 5.544,-7.912 1.256,-3.157 1.737,-6.806 1.44,-10.957 l -51.073,-17.509 c -0.04,-4.149 1,-7.696 3.117,-10.633 2.122,-2.942 5.729,-4.41 10.833,-4.41 4.147,0 7.841,1.339 11.081,4.02 3.239,2.679 5.438,6.095 6.608,10.246 h 16.212 c -1.284,-4.325 -3.125,-8.149 -5.531,-11.479" /></g><g
           transform="translate(577.7178,184.291)"
           id="g64"><path
             id="path66"
             style="fill:#0a487e;fill-opacity:1;fill-rule:nonzero;stroke:none"
             d="m 0,0 6.792,38.518 c 0.398,2.248 0.553,4.362 0.471,6.353 -0.082,1.988 -0.509,3.739 -1.279,5.254 -0.769,1.51 -1.924,2.699 -3.454,3.567 -1.535,0.861 -3.556,1.294 -6.062,1.294 -2.682,0 -5.088,-0.52 -7.214,-1.555 -2.126,-1.038 -3.987,-2.402 -5.581,-4.085 -1.595,-1.686 -2.901,-3.676 -3.904,-5.966 -1.014,-2.292 -1.733,-4.65 -2.159,-7.067 L -28.792,0 h -16.99 l 11.821,67.048 h 16.992 l -1.897,-10.765 c 3.194,4.408 6.828,7.586 10.888,9.531 4.06,1.949 8.638,2.92 13.743,2.92 7.089,0 12.381,-2.099 15.879,-6.289 3.496,-4.195 4.614,-9.881 3.348,-17.056 L 16.987,0 Z" /></g><g
           transform="translate(632.3584,240.4453)"
           id="g68"><path
             id="path70"
             style="fill:#0a487e;fill-opacity:1;fill-rule:nonzero;stroke:none"
             d="M 0,0 -9.902,-56.154 H -26.89 L -16.987,0 h -7.001 l 1.919,10.894 h 7.003 L -12.505,25.42 5.972,33.85 1.921,10.894 H 8.927 L 7.007,0 Z" /></g><g
           transform="translate(683.6816,238.0449)"
           id="g72"><path
             id="path74"
             style="fill:#0a487e;fill-opacity:1;fill-rule:nonzero;stroke:none"
             d="m 0,0 c -2.066,1.513 -4.742,2.271 -8.027,2.271 -2.944,0 -5.555,-0.5 -7.851,-1.492 -2.296,-0.994 -4.28,-2.333 -5.962,-4.021 -1.681,-1.687 -3.089,-3.653 -4.215,-5.901 -1.132,-2.247 -2.007,-4.626 -2.621,-7.132 L -28.929,-17.702 3.794,-6.42 C 3.332,-3.652 2.067,-1.515 0,0 m 11.892,-39.943 c -2.402,-3.329 -5.188,-6.141 -8.359,-8.43 -3.176,-2.29 -6.677,-4.041 -10.525,-5.252 -3.846,-1.211 -7.882,-1.815 -12.121,-1.815 -5.014,0 -9.44,0.886 -13.276,2.66 -3.84,1.77 -6.978,4.19 -9.422,7.262 -2.442,3.066 -4.11,6.718 -5.003,10.957 -0.899,4.234 -0.912,8.82 -0.041,13.749 0.898,5.099 2.552,9.833 4.966,14.2 2.412,4.362 5.395,8.147 8.942,11.346 3.547,3.198 7.62,5.707 12.221,7.524 4.595,1.812 9.49,2.722 14.677,2.722 3.891,0 7.538,-0.518 10.944,-1.556 3.404,-1.037 6.328,-2.615 8.765,-4.733 2.434,-2.12 4.285,-4.756 5.54,-7.912 1.261,-3.157 1.737,-6.806 1.445,-10.957 l -51.077,-17.509 c -0.036,-4.149 0.999,-7.696 3.12,-10.633 2.118,-2.942 5.728,-4.41 10.829,-4.41 4.152,0 7.844,1.339 11.086,4.02 3.234,2.679 5.438,6.095 6.602,10.246 h 16.213 c -1.283,-4.325 -3.12,-8.149 -5.526,-11.479" /></g><g
           transform="translate(188.2021,102.9551)"
           id="g76"><path
             id="path78"
             style="fill:#0a487e;fill-opacity:1;fill-rule:nonzero;stroke:none"
             d="m 0,0 c 0.293,1.67 0.051,3.193 -0.733,4.563 -0.788,1.372 -1.861,2.533 -3.217,3.481 -1.357,0.953 -2.878,1.698 -4.569,2.229 -1.695,0.533 -3.304,0.798 -4.83,0.798 -3.35,0 -6.277,-0.534 -8.784,-1.598 -2.512,-1.069 -4.651,-2.51 -6.415,-4.336 -1.769,-1.828 -3.199,-3.98 -4.28,-6.452 -1.087,-2.474 -1.875,-5.119 -2.369,-7.937 -1.009,-5.705 -0.4,-10.352 1.823,-13.926 2.228,-3.579 6.379,-5.367 12.474,-5.367 1.823,0 3.715,0.285 5.686,0.856 1.961,0.57 3.822,1.388 5.572,2.453 1.746,1.068 3.231,2.382 4.459,3.941 1.228,1.559 2.012,3.327 2.365,5.312 z m -6.746,-38.252 1.045,5.937 c -2.621,-2.359 -5.646,-4.187 -9.068,-5.481 -3.428,-1.293 -7.08,-1.94 -10.961,-1.94 -4.34,0 -8.203,0.761 -11.584,2.288 -3.387,1.519 -6.155,3.632 -8.304,6.336 -2.149,2.7 -3.639,5.913 -4.464,9.648 -0.829,3.726 -0.852,7.797 -0.073,12.212 0.793,4.495 2.25,8.66 4.372,12.506 2.126,3.842 4.766,7.172 7.932,9.986 3.158,2.812 6.741,5.026 10.755,6.623 4.01,1.596 8.304,2.399 12.867,2.399 3.579,0 6.824,-0.571 9.747,-1.713 2.915,-1.145 5.325,-2.82 7.217,-5.024 L 7.749,43.954 H 22.706 L 8.211,-38.252 Z" /></g><g
           transform="translate(250.312,112.0273)"
           id="g80"><path
             id="path82"
             style="fill:#0a487e;fill-opacity:1;fill-rule:nonzero;stroke:none"
             d="m 0,0 c -1.824,1.33 -4.179,1.999 -7.07,1.999 -2.59,0 -4.894,-0.437 -6.91,-1.312 -2.021,-0.874 -3.772,-2.056 -5.248,-3.537 -1.48,-1.487 -2.717,-3.218 -3.716,-5.197 -0.99,-1.978 -1.764,-4.072 -2.3,-6.279 l -0.225,-1.258 28.81,9.935 C 2.933,-3.216 1.82,-1.333 0,0 m 10.471,-35.162 c -2.117,-2.933 -4.573,-5.405 -7.364,-7.422 -2.791,-2.021 -5.879,-3.558 -9.261,-4.624 -3.387,-1.065 -6.947,-1.601 -10.672,-1.601 -4.418,0 -8.313,0.784 -11.695,2.344 -3.377,1.558 -6.136,3.691 -8.29,6.39 -2.144,2.704 -3.619,5.921 -4.403,9.648 -0.788,3.734 -0.802,7.767 -0.036,12.103 0.792,4.495 2.25,8.66 4.375,12.506 2.118,3.841 4.748,7.172 7.869,9.986 3.12,2.811 6.709,5.025 10.759,6.623 4.046,1.596 8.354,2.398 12.922,2.398 3.423,0 6.636,-0.459 9.637,-1.373 2.993,-0.911 5.568,-2.3 7.713,-4.165 2.144,-1.867 3.766,-4.186 4.88,-6.964 1.109,-2.781 1.526,-5.993 1.265,-9.649 l -44.963,-15.414 c -0.037,-3.651 0.879,-6.774 2.745,-9.362 1.865,-2.586 5.045,-3.879 9.536,-3.879 3.652,0 6.905,1.179 9.756,3.541 2.854,2.357 4.789,5.363 5.815,9.02 h 14.274 c -1.132,-3.812 -2.749,-7.175 -4.862,-10.106" /></g><g
           transform="translate(338.8955,64.7031)"
           id="g84"><path
             id="path86"
             style="fill:#0a487e;fill-opacity:1;fill-rule:nonzero;stroke:none"
             d="m 0,0 h -17.015 l -11.42,82.206 h 17.011 L -3.295,29.23 23.512,82.206 h 16.895 z" /></g><g
           transform="translate(402.1738,140.6289)"
           id="g88"><path
             id="path90"
             style="fill:#0a487e;fill-opacity:1;fill-rule:nonzero;stroke:none"
             d="m 0,0 c -0.229,-1.294 -0.696,-2.438 -1.402,-3.426 -0.71,-0.986 -1.581,-1.845 -2.626,-2.57 -1.035,-0.721 -2.144,-1.274 -3.313,-1.656 -1.173,-0.377 -2.327,-0.569 -3.469,-0.569 -1.146,0 -2.25,0.192 -3.327,0.569 -1.072,0.382 -2.002,0.935 -2.791,1.656 -0.787,0.725 -1.36,1.584 -1.713,2.57 -0.358,0.988 -0.422,2.132 -0.197,3.426 0.215,1.217 0.683,2.342 1.393,3.371 0.715,1.024 1.59,1.898 2.634,2.623 1.041,0.723 2.164,1.275 3.373,1.657 1.206,0.375 2.383,0.568 3.524,0.568 1.142,0 2.232,-0.193 3.268,-0.568 1.04,-0.382 1.952,-0.934 2.735,-1.657 C -1.123,5.269 -0.555,4.395 -0.206,3.371 0.146,2.342 0.216,1.217 0,0 m -30.285,-75.926 10.411,59.03 h 14.953 l -10.407,-59.03 z" /></g><g
           transform="translate(449.6436,102.9551)"
           id="g92"><path
             id="path94"
             style="fill:#0a487e;fill-opacity:1;fill-rule:nonzero;stroke:none"
             d="m 0,0 c 0.298,1.67 0.055,3.193 -0.729,4.563 -0.788,1.372 -1.86,2.533 -3.216,3.481 -1.357,0.953 -2.878,1.698 -4.57,2.229 -1.7,0.533 -3.302,0.798 -4.829,0.798 -3.35,0 -6.278,-0.534 -8.785,-1.598 -2.511,-1.069 -4.651,-2.51 -6.415,-4.336 -1.774,-1.828 -3.199,-3.98 -4.28,-6.452 -1.086,-2.474 -1.874,-5.119 -2.369,-7.937 -1.008,-5.705 -0.399,-10.352 1.824,-13.926 2.222,-3.579 6.384,-5.367 12.473,-5.367 1.825,0 3.716,0.285 5.682,0.856 1.971,0.57 3.822,1.388 5.577,2.453 1.746,1.068 3.231,2.382 4.458,3.941 1.229,1.559 2.012,3.327 2.366,5.312 z m -6.741,-38.252 1.045,5.937 c -2.621,-2.359 -5.645,-4.187 -9.069,-5.481 -3.427,-1.293 -7.08,-1.94 -10.961,-1.94 -4.339,0 -8.203,0.761 -11.584,2.288 -3.387,1.519 -6.154,3.632 -8.303,6.336 -2.15,2.7 -3.639,5.913 -4.464,9.648 -0.829,3.726 -0.857,7.797 -0.073,12.212 0.793,4.495 2.25,8.66 4.371,12.506 2.127,3.842 4.766,7.172 7.928,9.986 3.162,2.812 6.75,5.026 10.76,6.623 4.009,1.596 8.298,2.399 12.867,2.399 3.579,0 6.828,-0.571 9.747,-1.713 2.915,-1.145 5.325,-2.82 7.216,-5.024 l 0.926,5.252 H 18.622 L 8.216,-38.252 Z" /></g><g
           transform="translate(520.6582,102.9551)"
           id="g96"><path
             id="path98"
             style="fill:#0a487e;fill-opacity:1;fill-rule:nonzero;stroke:none"
             d="m 0,0 c 0.297,1.67 0.055,3.193 -0.733,4.563 -0.785,1.372 -1.857,2.533 -3.214,3.481 -1.356,0.953 -2.877,1.698 -4.573,2.229 -1.695,0.533 -3.303,0.798 -4.826,0.798 -3.348,0 -6.277,-0.534 -8.789,-1.598 -2.506,-1.069 -4.645,-2.51 -6.415,-4.336 -1.764,-1.828 -3.194,-3.98 -4.274,-6.452 -1.086,-2.474 -1.875,-5.119 -2.374,-7.937 -0.999,-5.705 -0.395,-10.352 1.828,-13.926 2.226,-3.579 6.379,-5.367 12.469,-5.367 1.828,0 3.721,0.285 5.691,0.856 1.961,0.57 3.817,1.388 5.567,2.453 1.747,1.068 3.237,2.382 4.464,3.941 1.228,1.559 2.012,3.327 2.36,5.312 z m 5.475,-46.983 c -1.357,-3.158 -3.318,-5.974 -5.884,-8.451 -2.566,-2.472 -5.81,-4.467 -9.737,-5.994 -3.918,-1.519 -8.771,-2.282 -14.559,-2.282 -3.35,0 -6.548,0.305 -9.6,0.913 -3.052,0.609 -5.718,1.656 -8.01,3.141 -2.287,1.482 -4.051,3.465 -5.289,5.935 -1.236,2.473 -1.718,5.58 -1.442,9.305 h 14.847 c -0.097,-3.118 0.916,-5.571 3.037,-7.36 2.123,-1.79 4.666,-2.687 7.635,-2.687 2.433,0 4.605,0.456 6.516,1.37 1.91,0.915 3.574,2.132 4.986,3.653 1.412,1.526 2.552,3.277 3.436,5.253 0.88,1.978 1.513,4.036 1.884,6.166 l 1.008,5.706 c -2.621,-2.359 -5.646,-4.187 -9.069,-5.481 -3.427,-1.293 -7.08,-1.94 -10.961,-1.94 -4.339,0 -8.202,0.761 -11.585,2.288 -3.385,1.519 -6.159,3.632 -8.307,6.336 -2.145,2.7 -3.634,5.913 -4.458,9.648 -0.829,3.726 -0.857,7.797 -0.074,12.212 0.793,4.495 2.25,8.66 4.376,12.506 2.117,3.842 4.761,7.172 7.923,9.986 3.162,2.812 6.747,5.026 10.759,6.623 4.011,1.596 8.3,2.399 12.868,2.399 3.579,0 6.824,-0.571 9.746,-1.713 2.915,-1.145 5.321,-2.82 7.218,-5.024 l 0.926,5.252 h 14.957 l -10.223,-58 c -0.59,-3.347 -1.567,-6.603 -2.924,-9.76" /></g><g
           transform="translate(582.4287,112.0273)"
           id="g100"><path
             id="path102"
             style="fill:#0a487e;fill-opacity:1;fill-rule:nonzero;stroke:none"
             d="m 0,0 c -1.824,1.33 -4.18,1.999 -7.071,1.999 -2.589,0 -4.89,-0.437 -6.91,-1.312 -2.022,-0.874 -3.766,-2.056 -5.247,-3.537 -1.48,-1.487 -2.717,-3.218 -3.712,-5.197 -0.994,-1.978 -1.768,-4.072 -2.31,-6.279 l -0.22,-1.258 28.81,9.935 C 2.933,-3.216 1.819,-1.333 0,0 m 10.47,-35.162 c -2.117,-2.933 -4.573,-5.405 -7.36,-7.422 -2.794,-2.021 -5.882,-3.558 -9.265,-4.624 -3.385,-1.065 -6.942,-1.601 -10.672,-1.601 -4.418,0 -8.313,0.784 -11.694,2.344 -3.377,1.558 -6.14,3.691 -8.285,6.39 -2.154,2.704 -3.625,5.921 -4.409,9.648 -0.793,3.734 -0.802,7.767 -0.036,12.103 0.793,4.495 2.244,8.66 4.376,12.506 2.121,3.841 4.742,7.172 7.868,9.986 3.12,2.811 6.709,5.025 10.754,6.623 4.051,1.596 8.359,2.398 12.928,2.398 3.423,0 6.635,-0.459 9.637,-1.373 2.993,-0.911 5.567,-2.3 7.711,-4.165 2.145,-1.867 3.773,-4.186 4.882,-6.964 1.108,-2.781 1.525,-5.993 1.268,-9.649 l -44.962,-15.414 c -0.036,-3.651 0.875,-6.774 2.745,-9.362 1.864,-2.586 5.04,-3.879 9.536,-3.879 3.648,0 6.902,1.179 9.751,3.541 2.851,2.357 4.788,5.363 5.819,9.02 h 14.27 C 14.2,-28.868 12.583,-32.231 10.47,-35.162" /></g><g
           transform="translate(681.8584,64.7031)"
           id="g104"><path
             id="path106"
             style="fill:#0a487e;fill-opacity:1;fill-rule:nonzero;stroke:none"
             d="m 0,0 5.979,33.91 c 0.349,1.983 0.491,3.843 0.418,5.593 -0.074,1.753 -0.431,3.294 -1.068,4.628 -0.646,1.329 -1.637,2.379 -2.988,3.139 -1.348,0.756 -3.166,1.139 -5.447,1.139 -2.362,0 -4.479,-0.456 -6.352,-1.371 -1.875,-0.911 -3.496,-2.112 -4.858,-3.597 -1.371,-1.482 -2.493,-3.235 -3.382,-5.247 -0.889,-2.023 -1.521,-4.096 -1.897,-6.225 L -25.231,0 h -14.957 l 5.98,33.91 c 0.349,1.983 0.485,3.843 0.416,5.593 -0.072,1.753 -0.449,3.294 -1.126,4.628 -0.679,1.329 -1.696,2.379 -3.043,3.139 -1.348,0.756 -3.13,1.139 -5.335,1.139 -2.437,0 -4.591,-0.456 -6.465,-1.371 -1.875,-0.911 -3.492,-2.112 -4.857,-3.597 -1.366,-1.482 -2.492,-3.235 -3.382,-5.247 -0.89,-2.023 -1.517,-4.096 -1.897,-6.225 L -65.534,0 h -14.957 l 10.406,59.029 h 14.963 l -1.674,-9.474 c 2.815,3.877 6.031,6.678 9.643,8.388 3.615,1.713 7.625,2.571 12.043,2.571 4.949,0 8.88,-1.199 11.812,-3.598 2.924,-2.396 4.665,-5.689 5.22,-9.878 2.579,4.719 5.833,8.146 9.747,10.281 3.913,2.124 8.386,3.195 13.408,3.195 6.24,0 10.897,-1.868 13.971,-5.593 3.07,-3.735 4.056,-8.719 2.956,-14.957 L 14.957,0 Z" /></g></g></g></g></svg>