<svg width="17" height="17" viewBox="0 0 17 17" fill="none" xmlns="http://www.w3.org/2000/svg">
<path d="M7.91677 8.6665C7.91677 8.51817 7.96075 8.37316 8.04316 8.24983C8.12557 8.12649 8.24271 8.03036 8.37975 7.97359C8.5168 7.91683 8.6676 7.90198 8.81308 7.93092C8.95857 7.95985 9.09221 8.03128 9.1971 8.13617C9.30198 8.24106 9.37342 8.3747 9.40235 8.52019C9.43129 8.66567 9.41644 8.81647 9.35967 8.95352C9.30291 9.09056 9.20678 9.2077 9.08344 9.29011C8.96011 9.37252 8.8151 9.4165 8.66677 9.4165C8.46785 9.4165 8.27709 9.33749 8.13644 9.19683C7.99578 9.05618 7.91677 8.86542 7.91677 8.6665ZM5.91677 9.4165C6.0651 9.4165 6.21011 9.37252 6.33344 9.29011C6.45678 9.2077 6.55291 9.09056 6.60967 8.95352C6.66644 8.81647 6.68129 8.66567 6.65235 8.52019C6.62342 8.3747 6.55198 8.24106 6.4471 8.13617C6.34221 8.03128 6.20857 7.95985 6.06308 7.93092C5.9176 7.90198 5.7668 7.91683 5.62975 7.97359C5.49271 8.03036 5.37557 8.12649 5.29316 8.24983C5.21075 8.37316 5.16677 8.51817 5.16677 8.6665C5.16677 8.86542 5.24578 9.05618 5.38644 9.19683C5.52709 9.33749 5.71785 9.4165 5.91677 9.4165ZM11.4168 9.4165C11.5651 9.4165 11.7101 9.37252 11.8334 9.29011C11.9568 9.2077 12.0529 9.09056 12.1097 8.95352C12.1664 8.81647 12.1813 8.66567 12.1524 8.52019C12.1234 8.3747 12.052 8.24106 11.9471 8.13617C11.8422 8.03128 11.7086 7.95985 11.5631 7.93092C11.4176 7.90198 11.2668 7.91683 11.1298 7.97359C10.9927 8.03036 10.8756 8.12649 10.7932 8.24983C10.7108 8.37316 10.6668 8.51817 10.6668 8.6665C10.6668 8.86542 10.7458 9.05618 10.8864 9.19683C11.0271 9.33749 11.2179 9.4165 11.4168 9.4165ZM15.1668 4.6665V12.6665C15.1668 12.9317 15.0614 13.1861 14.8739 13.3736C14.6863 13.5611 14.432 13.6665 14.1668 13.6665H5.85427L3.81677 15.4265L3.81114 15.4309C3.63116 15.5835 3.40273 15.667 3.16676 15.6665C3.01987 15.6662 2.87482 15.6338 2.74176 15.5715C2.56918 15.4917 2.4232 15.364 2.32124 15.2035C2.21928 15.043 2.16566 14.8566 2.16676 14.6665V4.6665C2.16676 4.40129 2.27212 4.14693 2.45966 3.9594C2.64719 3.77186 2.90155 3.6665 3.16676 3.6665H14.1668C14.432 3.6665 14.6863 3.77186 14.8739 3.9594C15.0614 4.14693 15.1668 4.40129 15.1668 4.6665ZM14.1668 4.6665H3.16676V14.6665L5.33989 12.7915C5.43023 12.7118 5.54631 12.6674 5.66677 12.6665H14.1668V4.6665Z" fill="#646464"/>
</svg>
