<svg width="44" height="44" viewBox="0 0 44 44" fill="none" xmlns="http://www.w3.org/2000/svg">
<rect width="44" height="44" rx="22" fill="#F4F4F4"/>
<path d="M25.0338 10.7412C25.0677 10.6143 25.1263 10.4954 25.2063 10.3911C25.2862 10.2869 25.3859 10.1994 25.4997 10.1337C25.6134 10.068 25.739 10.0253 25.8693 10.0082C25.9995 9.99104 26.1319 9.99972 26.2588 10.0337C28.1126 10.5174 29.804 11.4865 31.1587 12.8413C32.5135 14.196 33.4826 15.8874 33.9663 17.7412C34.0003 17.8681 34.009 18.0005 33.9918 18.1307C33.9747 18.261 33.932 18.3866 33.8663 18.5003C33.8006 18.6141 33.7131 18.7138 33.6089 18.7937C33.5047 18.8737 33.3857 18.9323 33.2588 18.9662C33.1743 18.9884 33.0873 18.9998 33 19C32.7796 19 32.5655 18.9272 32.3907 18.7929C32.216 18.6586 32.0905 18.4704 32.0338 18.2575C31.6393 16.7441 30.8483 15.3634 29.7425 14.2575C28.6366 13.1517 27.2559 12.3607 25.7425 11.9662C25.6155 11.9324 25.4964 11.8739 25.392 11.794C25.2876 11.7141 25.2 11.6145 25.1342 11.5007C25.0683 11.3869 25.0256 11.2613 25.0084 11.131C24.9911 11.0006 24.9998 10.8682 25.0338 10.7412ZM24.7425 15.9662C26.4663 16.4262 27.5738 17.5337 28.0338 19.2575C28.0905 19.4704 28.216 19.6586 28.3907 19.7929C28.5655 19.9272 28.7796 20 29 20C29.0873 19.9998 29.1743 19.9884 29.2588 19.9662C29.3857 19.9323 29.5047 19.8737 29.6089 19.7937C29.7131 19.7138 29.8006 19.6141 29.8663 19.5003C29.932 19.3866 29.9747 19.261 29.9918 19.1307C30.009 19.0005 30.0003 18.8681 29.9663 18.7412C29.3263 16.3462 27.6538 14.6737 25.2588 14.0337C25.1319 13.9998 24.9995 13.9913 24.8693 14.0085C24.7391 14.0258 24.6136 14.0685 24.4999 14.1342C24.3862 14.2 24.2866 14.2875 24.2067 14.3917C24.1268 14.496 24.0683 14.615 24.0344 14.7419C24.0005 14.8688 23.9919 15.0011 24.0092 15.1313C24.0264 15.2615 24.0691 15.387 24.1349 15.5007C24.2006 15.6144 24.2881 15.714 24.3924 15.7939C24.4967 15.8738 24.6156 15.9323 24.7425 15.9662ZM34.985 27.885C34.7621 29.5788 33.9303 31.1335 32.6449 32.2588C31.3595 33.3841 29.7084 34.0031 28 34C18.075 34 10 25.925 10 16C9.99695 14.2916 10.6159 12.6405 11.7412 11.3551C12.8665 10.0697 14.4212 9.23787 16.115 9.01499C16.5433 8.96269 16.9771 9.05032 17.3515 9.26479C17.7259 9.47926 18.0209 9.80907 18.1925 10.205L20.8325 16.0987V16.1137C20.9639 16.4168 21.0181 16.7477 20.9904 17.0768C20.9627 17.406 20.8539 17.7231 20.6738 18C20.6513 18.0337 20.6275 18.065 20.6025 18.0962L18 21.1812C18.9363 23.0837 20.9263 25.0562 22.8538 25.995L25.8963 23.4062C25.9261 23.3811 25.9574 23.3578 25.99 23.3362C26.2666 23.1517 26.5849 23.0391 26.916 23.0086C27.2471 22.978 27.5806 23.0305 27.8863 23.1612L27.9025 23.1687L33.7913 25.8075C34.1879 25.9785 34.5185 26.2732 34.7337 26.6477C34.9489 27.0222 35.037 27.4562 34.985 27.885ZM33 27.635C33 27.635 32.9913 27.635 32.9863 27.635L27.1113 25.0037L24.0675 27.5925C24.038 27.6175 24.0071 27.6409 23.975 27.6625C23.6872 27.8545 23.3545 27.9686 23.0094 27.9935C22.6644 28.0185 22.3187 27.9536 22.0063 27.805C19.665 26.6737 17.3313 24.3575 16.1988 22.0412C16.0488 21.7311 15.9815 21.3874 16.0034 21.0436C16.0253 20.6997 16.1357 20.3674 16.3238 20.0787C16.345 20.0448 16.3688 20.0127 16.395 19.9825L19 16.8937L16.375 11.0187C16.3745 11.0138 16.3745 11.0087 16.375 11.0037C15.1628 11.1619 14.0499 11.7564 13.2445 12.6761C12.4392 13.5958 11.9967 14.7775 12 16C12.0046 20.242 13.6918 24.309 16.6914 27.3086C19.691 30.3082 23.758 31.9954 28 32C29.2217 32.0042 30.4031 31.5633 31.3233 30.7597C32.2436 29.9561 32.8396 28.8449 33 27.6337V27.635Z" fill="#131313"/>
</svg>
