<svg width="16" height="16" viewBox="0 0 16 16" fill="none" xmlns="http://www.w3.org/2000/svg">
<path d="M14.6547 7.39936L11.836 9.85936L12.6804 13.5219C12.7251 13.7133 12.7123 13.9137 12.6437 14.098C12.5751 14.2822 12.4538 14.4422 12.2948 14.5578C12.1358 14.6735 11.9462 14.7397 11.7498 14.7482C11.5533 14.7567 11.3588 14.7071 11.1904 14.6056L7.996 12.6681L4.8085 14.6056C4.64011 14.7071 4.44553 14.7567 4.24911 14.7482C4.05268 14.7397 3.86312 14.6735 3.70412 14.5578C3.54512 14.4422 3.42374 14.2822 3.35515 14.098C3.28657 13.9137 3.27382 13.7133 3.3185 13.5219L4.16163 9.86311L1.34225 7.39936C1.19313 7.27075 1.0853 7.10097 1.03229 6.91132C0.979269 6.72168 0.983425 6.5206 1.04423 6.3333C1.10504 6.14601 1.21979 5.98083 1.3741 5.85849C1.52841 5.73615 1.7154 5.6621 1.91163 5.64561L5.62788 5.32373L7.0785 1.86373C7.15425 1.68218 7.28203 1.5271 7.44574 1.41802C7.60945 1.30894 7.80178 1.25073 7.9985 1.25073C8.19522 1.25073 8.38755 1.30894 8.55126 1.41802C8.71497 1.5271 8.84275 1.68218 8.9185 1.86373L10.3735 5.32373L14.0885 5.64561C14.2847 5.6621 14.4717 5.73615 14.626 5.85849C14.7803 5.98083 14.8951 6.14601 14.9559 6.3333C15.0167 6.5206 15.0209 6.72168 14.9678 6.91132C14.9148 7.10097 14.807 7.27075 14.6579 7.39936H14.6547Z" fill="#FFCC00"/>
</svg>
