<svg width="44" height="44" viewBox="0 0 44 44" fill="none" xmlns="http://www.w3.org/2000/svg">
<rect width="44" height="44" rx="22" fill="url(#paint0_linear_1351_1062)"/>
<path d="M33.2569 31.1875C31.5911 28.3076 29.0241 26.2426 26.0283 25.2637C27.5101 24.3816 28.6614 23.0374 29.3054 21.4376C29.9493 19.8378 30.0503 18.0708 29.5929 16.408C29.1354 14.7453 28.1448 13.2786 26.7731 12.2334C25.4014 11.1881 23.7245 10.622 22 10.622C20.2754 10.622 18.5986 11.1881 17.2269 12.2334C15.8552 13.2786 14.8646 14.7453 14.4071 16.408C13.9496 18.0708 14.0506 19.8378 14.6946 21.4376C15.3386 23.0374 16.4899 24.3816 17.9717 25.2637C14.9759 26.2415 12.4089 28.3065 10.7431 31.1875C10.682 31.2871 10.6415 31.3979 10.624 31.5134C10.6064 31.629 10.6121 31.7468 10.6409 31.8601C10.6696 31.9733 10.7207 32.0797 10.7912 32.1729C10.8617 32.2661 10.9502 32.3442 11.0514 32.4026C11.1525 32.4611 11.2644 32.4986 11.3803 32.5132C11.4963 32.5277 11.614 32.5188 11.7264 32.4871C11.8389 32.4554 11.9439 32.4015 12.0351 32.3286C12.1264 32.2556 12.2022 32.1652 12.258 32.0625C14.3186 28.5012 17.9608 26.375 22 26.375C26.0392 26.375 29.6814 28.5012 31.742 32.0625C31.7978 32.1652 31.8735 32.2556 31.9648 32.3286C32.0561 32.4015 32.1611 32.4554 32.2736 32.4871C32.386 32.5188 32.5037 32.5277 32.6196 32.5132C32.7356 32.4986 32.8474 32.4611 32.9486 32.4026C33.0498 32.3442 33.1382 32.2661 33.2087 32.1729C33.2792 32.0797 33.3304 31.9733 33.3591 31.8601C33.3878 31.7468 33.3936 31.629 33.376 31.5134C33.3585 31.3979 33.318 31.2871 33.2569 31.1875ZM15.875 18.5C15.875 17.2886 16.2342 16.1044 16.9072 15.0971C17.5803 14.0899 18.5369 13.3048 19.6561 12.8412C20.7753 12.3776 22.0068 12.2563 23.1949 12.4927C24.3831 12.729 25.4744 13.3124 26.331 14.169C27.1876 15.0256 27.771 16.1169 28.0073 17.3051C28.2436 18.4932 28.1223 19.7247 27.6588 20.8439C27.1952 21.9631 26.4101 22.9197 25.4029 23.5927C24.3956 24.2658 23.2114 24.625 22 24.625C20.3761 24.6232 18.8192 23.9774 17.6709 22.8291C16.5226 21.6808 15.8767 20.1239 15.875 18.5Z" fill="#F4F4F4"/>
<defs>
<linearGradient id="paint0_linear_1351_1062" x1="0" y1="44" x2="44" y2="0" gradientUnits="userSpaceOnUse">
<stop stop-color="#A9C923"/>
<stop offset="1" stop-color="#A6DA79"/>
</linearGradient>
</defs>
</svg>
