<svg width="44" height="44" viewBox="0 0 44 44" fill="none" xmlns="http://www.w3.org/2000/svg">
<rect width="44" height="44" rx="22" fill="url(#paint0_linear_1351_978)"/>
<rect x="0.8" y="0.8" width="42.4" height="42.4" rx="21.2" stroke="white" stroke-opacity="0.2" stroke-width="1.6"/>
<path fill-rule="evenodd" clip-rule="evenodd" d="M30.5033 13.4874C28.2472 11.2396 25.2468 10.0011 22.0501 9.99982C15.4635 9.99982 10.1028 15.3343 10.1002 21.8912C10.0993 23.9872 10.6496 26.0331 11.6953 27.8365L10 33.999L16.3348 32.3453C18.0802 33.2927 20.0453 33.792 22.0453 33.7928H22.0502C28.6362 33.7928 33.9973 28.4577 34 21.9007C34.0013 18.7231 32.7595 15.7352 30.5033 13.4874ZM22.0502 31.7843H22.0462C20.264 31.7836 18.5159 31.3071 16.991 30.4065L16.6283 30.1923L12.8692 31.1737L13.8726 27.5262L13.6364 27.1523C12.6422 25.5785 12.117 23.7596 12.1178 21.892C12.12 16.4421 16.5756 12.0083 22.0542 12.0083C24.707 12.0093 27.2008 13.0388 29.0761 14.9071C30.9513 16.7754 31.9834 19.2588 31.9824 21.8999C31.9802 27.3502 27.5246 31.7843 22.0502 31.7843ZM27.4983 24.3815C27.1997 24.2328 25.7317 23.5139 25.458 23.4147C25.1843 23.3156 24.9853 23.266 24.7862 23.5635C24.5872 23.8609 24.0149 24.5303 23.8407 24.7286C23.6666 24.9269 23.4924 24.9517 23.1938 24.8029C22.8952 24.6542 21.9332 24.3405 20.7927 23.3281C19.9051 22.5403 19.3058 21.5671 19.1316 21.2697C18.9575 20.9722 19.1131 20.8113 19.2626 20.6632C19.3969 20.5301 19.5611 20.3162 19.7104 20.1426C19.8597 19.9691 19.9095 19.8452 20.009 19.6469C20.1085 19.4485 20.0588 19.275 19.9841 19.1263C19.9095 18.9776 19.3124 17.515 19.0635 16.92C18.8212 16.3406 18.575 16.419 18.3917 16.4099C18.2177 16.4013 18.0185 16.3995 17.8195 16.3995C17.6204 16.3995 17.2969 16.4739 17.0232 16.7713C16.7495 17.0688 15.9782 17.7877 15.9782 19.2502C15.9782 20.7128 17.0481 22.1257 17.1974 22.3241C17.3467 22.5224 19.3029 25.5238 22.2981 26.8109C23.0105 27.117 23.5666 27.2998 24.0003 27.4368C24.7156 27.6629 25.3665 27.631 25.881 27.5545C26.4546 27.4692 27.6475 26.8357 27.8964 26.1416C28.1452 25.4475 28.1452 24.8525 28.0705 24.7286C27.9959 24.6046 27.7968 24.5303 27.4983 24.3815Z" fill="#F6F8FA"/>
<defs>
<linearGradient id="paint0_linear_1351_978" x1="0" y1="44" x2="44" y2="0" gradientUnits="userSpaceOnUse">
<stop stop-color="#1FCB41"/>
<stop offset="1" stop-color="#43EA61"/>
</linearGradient>
</defs>
</svg>
